<mxfile host="app.diagrams.net" agent="Mozilla/5.0 (Windows NT 10.0; Win64; x64) AppleWebKit/537.36 (KHTML, like Gecko) Chrome/136.0.0.0 Safari/537.36" version="27.0.6">
  <diagram name="Página-1" id="kXvxh4_hNwZgy8vEPWXX">
    <mxGraphModel grid="1" page="1" gridSize="10" guides="1" tooltips="1" connect="1" arrows="1" fold="1" pageScale="1" pageWidth="827" pageHeight="1169" math="0" shadow="0">
      <root>
        <mxCell id="0" />
        <mxCell id="1" parent="0" />
        <mxCell id="qiQgFzwUvH9qXqgqMbQP-8" style="edgeStyle=orthogonalEdgeStyle;rounded=0;orthogonalLoop=1;jettySize=auto;html=1;exitX=1;exitY=0.5;exitDx=0;exitDy=0;entryX=0;entryY=0.5;entryDx=0;entryDy=0;" edge="1" parent="1" source="qiQgFzwUvH9qXqgqMbQP-1" target="qiQgFzwUvH9qXqgqMbQP-4">
          <mxGeometry relative="1" as="geometry" />
        </mxCell>
        <mxCell id="qiQgFzwUvH9qXqgqMbQP-1" value="cpf: String&lt;div&gt;&lt;br&gt;&lt;/div&gt;&lt;div&gt;nome: String&lt;/div&gt;&lt;div&gt;&lt;br&gt;&lt;/div&gt;&lt;div&gt;sobrenome: String&lt;/div&gt;&lt;div&gt;&lt;br&gt;&lt;/div&gt;&lt;div&gt;email: String&lt;/div&gt;&lt;div&gt;&lt;br&gt;&lt;/div&gt;&lt;div&gt;senha: String&lt;/div&gt;" style="rounded=0;whiteSpace=wrap;html=1;" vertex="1" parent="1">
          <mxGeometry x="90" y="90" width="150" height="160" as="geometry" />
        </mxCell>
        <mxCell id="qiQgFzwUvH9qXqgqMbQP-2" value="Usuario" style="rounded=0;whiteSpace=wrap;html=1;" vertex="1" parent="1">
          <mxGeometry x="90" y="30" width="150" height="60" as="geometry" />
        </mxCell>
        <mxCell id="qiQgFzwUvH9qXqgqMbQP-3" value="Notificação" style="rounded=0;whiteSpace=wrap;html=1;" vertex="1" parent="1">
          <mxGeometry x="370" y="80" width="150" height="60" as="geometry" />
        </mxCell>
        <mxCell id="qiQgFzwUvH9qXqgqMbQP-4" value="id : Long&lt;div&gt;&lt;br&gt;&lt;/div&gt;&lt;div&gt;usuario: Usuario&lt;/div&gt;&lt;div&gt;&lt;br&gt;&lt;/div&gt;&lt;div&gt;Produto: Produto&lt;/div&gt;&lt;div&gt;&lt;br&gt;&lt;/div&gt;&lt;div&gt;mensagem: String&lt;/div&gt;&lt;div&gt;&lt;br&gt;&lt;/div&gt;&lt;div&gt;categoria: String&lt;/div&gt;&lt;div&gt;&lt;br&gt;&lt;/div&gt;&lt;div&gt;status: String&lt;/div&gt;" style="rounded=0;whiteSpace=wrap;html=1;" vertex="1" parent="1">
          <mxGeometry x="370" y="140" width="150" height="190" as="geometry" />
        </mxCell>
        <mxCell id="qiQgFzwUvH9qXqgqMbQP-9" style="edgeStyle=orthogonalEdgeStyle;rounded=0;orthogonalLoop=1;jettySize=auto;html=1;exitX=0;exitY=0.5;exitDx=0;exitDy=0;entryX=1;entryY=0.5;entryDx=0;entryDy=0;" edge="1" parent="1" source="qiQgFzwUvH9qXqgqMbQP-5" target="qiQgFzwUvH9qXqgqMbQP-4">
          <mxGeometry relative="1" as="geometry" />
        </mxCell>
        <mxCell id="qiQgFzwUvH9qXqgqMbQP-5" value="id: Long&lt;br&gt;&lt;div&gt;&lt;br&gt;&lt;/div&gt;&lt;div&gt;nome: String&lt;/div&gt;&lt;div&gt;&lt;br&gt;&lt;/div&gt;&lt;div&gt;preco: double&lt;/div&gt;&lt;div&gt;&lt;br&gt;&lt;/div&gt;&lt;div&gt;categoria: String&lt;/div&gt;" style="rounded=0;whiteSpace=wrap;html=1;" vertex="1" parent="1">
          <mxGeometry x="640" y="90" width="150" height="120" as="geometry" />
        </mxCell>
        <mxCell id="qiQgFzwUvH9qXqgqMbQP-6" value="Produto" style="rounded=0;whiteSpace=wrap;html=1;" vertex="1" parent="1">
          <mxGeometry x="640" y="30" width="150" height="60" as="geometry" />
        </mxCell>
        <mxCell id="qiQgFzwUvH9qXqgqMbQP-10" value="1" style="text;html=1;align=center;verticalAlign=middle;resizable=0;points=[];autosize=1;strokeColor=none;fillColor=none;" vertex="1" parent="1">
          <mxGeometry x="605" y="118" width="30" height="30" as="geometry" />
        </mxCell>
        <mxCell id="qiQgFzwUvH9qXqgqMbQP-11" value="1" style="text;html=1;align=center;verticalAlign=middle;resizable=0;points=[];autosize=1;strokeColor=none;fillColor=none;" vertex="1" parent="1">
          <mxGeometry x="235" y="138" width="30" height="30" as="geometry" />
        </mxCell>
        <mxCell id="qiQgFzwUvH9qXqgqMbQP-12" value="*" style="text;html=1;align=center;verticalAlign=middle;resizable=0;points=[];autosize=1;strokeColor=none;fillColor=none;" vertex="1" parent="1">
          <mxGeometry x="335" y="198" width="30" height="30" as="geometry" />
        </mxCell>
        <mxCell id="qiQgFzwUvH9qXqgqMbQP-13" value="*" style="text;html=1;align=center;verticalAlign=middle;resizable=0;points=[];autosize=1;strokeColor=none;fillColor=none;" vertex="1" parent="1">
          <mxGeometry x="515" y="198" width="30" height="30" as="geometry" />
        </mxCell>
      </root>
    </mxGraphModel>
  </diagram>
</mxfile>
